<?xml version="1.0" encoding="utf-8"?>
<!-- Generator: Adobe Illustrator 25.2.3, SVG Export Plug-In . SVG Version: 6.00 Build 0)  -->
<svg version="1.1" id="Layer_1" xmlns="http://www.w3.org/2000/svg" xmlns:xlink="http://www.w3.org/1999/xlink" x="0px" y="0px"
	 viewBox="0 0 62 62" style="enable-background:new 0 0 62 62;" xml:space="preserve">
<style type="text/css">
	.st0{fill:#606060;}
	.st1{fill:#1E1E1E;}
	.st2{fill:#FCBF10;}
</style>
<g>
	<g>
		<path class="st0" d="M42.5,21.91c0,0,1.48-9.54,3.58-13.1c0.02-0.04,0.05-0.07,0.06-0.1c1.55-2.52,5.44-0.79,4.64,2.06L44.2,34.36
			L42.5,21.91z"/>
	</g>
	<g>
		<path class="st1" d="M41.62,22.03L41.6,21.9l0.02-0.13c0.06-0.39,1.53-9.75,3.69-13.41l0.07-0.12c0.92-1.49,2.69-2.04,4.3-1.33
			c1.62,0.71,2.42,2.4,1.95,4.1L43.9,38.7L41.62,22.03z M46.89,9.17l-0.06,0.08c-1.86,3.15-3.27,11.53-3.45,12.66l1.1,8.08
			l5.44-19.47c0.29-1.04-0.33-1.73-0.96-2c-0.21-0.09-0.47-0.16-0.73-0.16C47.77,8.37,47.26,8.58,46.89,9.17z"/>
	</g>
	<g>
		<path class="st2" d="M41.83,20.48c0,0-0.08-9.66,1.41-13.5c0.02-0.04,0.03-0.07,0.05-0.11c1.13-2.73,5.24-1.65,4.91,1.29
			l-2.68,24.34L41.83,20.48z"/>
	</g>
	<g>
		<path class="st1" d="M40.98,20.73l-0.04-0.12v-0.13c0-0.4-0.06-9.87,1.48-13.83l0.06-0.14C43.15,4.9,44.8,4.07,46.5,4.5
			c1.72,0.44,2.77,1.97,2.58,3.72l-3.15,28.58L40.98,20.73z M44.11,7.2l-0.04,0.1c-1.33,3.42-1.36,11.91-1.36,13.05l2.4,7.8
			l2.21-20.1c0.12-1.07-0.61-1.65-1.27-1.82c-0.15-0.04-0.29-0.06-0.46-0.06C45.04,6.17,44.43,6.43,44.11,7.2z M41.83,20.48
			L41.83,20.48L41.83,20.48z"/>
	</g>
	<g>
		<g>
			<path class="st2" d="M40.11,18.83c0,0-2.21-9.41-1.6-13.48c0.01-0.04,0.01-0.08,0.02-0.12c0.5-2.91,4.74-2.77,5.07,0.17
				l2.76,24.33L40.11,18.83z"/>
		</g>
	</g>
	<g>
		<g>
			<path class="st1" d="M46.36,30.61c0.04,0,0.06,0,0.1-0.01c0.49-0.06,0.84-0.5,0.78-0.97L44.48,5.29
				c-0.2-1.75-1.57-3.01-3.34-3.06c-0.04,0-0.07,0-0.11,0c-1.71,0-3.09,1.16-3.37,2.85l-0.02,0.13c-0.63,4.21,1.52,13.44,1.62,13.82
				c0.11,0.48,0.59,0.77,1.07,0.66c0.48-0.11,0.77-0.59,0.66-1.07c-0.02-0.09-2.17-9.29-1.59-13.15l0.02-0.1
				c0.17-1.05,1.04-1.4,1.69-1.38c0.68,0.02,1.52,0.42,1.63,1.5l2.76,24.33C45.53,30.27,45.92,30.61,46.36,30.61z"/>
		</g>
	</g>
	<g>
		<g>
			<g>
				<g>
					<path class="st2" d="M15.74,34.44c-0.04-0.01-0.08-0.02-0.12-0.03c-0.81-1.59-1.18-3.42-0.97-5.32
						c0.57-5.18,5.24-8.92,10.42-8.35c4.58,0.51,8.05,4.22,8.39,8.65c0.05,0.58,0.04,1.17-0.03,1.76
						c-0.57,5.18-5.24,8.92-10.42,8.35c-2.52-0.28-4.68-1.52-6.19-3.32C16.98,35.42,16.48,34.68,15.74,34.44z"/>
				</g>
			</g>
			<g>
				<g>
					<path class="st1" d="M22.9,40.38c-5.66-0.62-9.75-5.73-9.13-11.39c0.3-2.74,1.65-5.2,3.8-6.93c2.15-1.73,4.84-2.51,7.59-2.2
						c4.93,0.54,8.79,4.52,9.17,9.46c0.05,0.63,0.04,1.29-0.04,1.93c-0.3,2.74-1.65,5.2-3.8,6.93c-1.85,1.49-4.1,2.27-6.44,2.27
						C23.67,40.45,23.28,40.43,22.9,40.38z M15.52,29.18c-0.51,4.69,2.88,8.93,7.57,9.44c2.27,0.25,4.51-0.4,6.29-1.83
						c1.78-1.43,2.9-3.47,3.15-5.74c0.06-0.53,0.06-1.07,0.03-1.6l0,0c-0.31-4.1-3.51-7.39-7.6-7.84c-0.31-0.04-0.63-0.06-0.94-0.06
						C19.72,21.56,16,24.81,15.52,29.18z"/>
				</g>
			</g>
		</g>
		<g>
			<g>
				<path class="st1" d="M24.05,37.87c1.62,0,3.2-0.51,4.53-1.48c1.67-1.21,2.77-3.01,3.1-5.05c0.07-0.48,0.11-0.96,0.09-1.44
					c-0.01-0.49-0.4-0.88-0.91-0.85c-0.49,0.01-0.87,0.42-0.85,0.91c0.01,0.37-0.02,0.74-0.07,1.12c-0.25,1.58-1.1,2.97-2.4,3.9
					c-1.3,0.94-2.87,1.31-4.45,1.07c-1.36-0.22-2.56-0.86-3.48-1.88c-0.33-0.36-0.88-0.39-1.25-0.06c-0.36,0.33-0.39,0.89-0.06,1.25
					c1.18,1.3,2.78,2.16,4.51,2.44C23.22,37.84,23.63,37.87,24.05,37.87z"/>
			</g>
		</g>
		<g>
			<g>
				<path class="st1" d="M17.27,32.24c0.06,0,0.11-0.01,0.16-0.02c0.48-0.09,0.8-0.55,0.71-1.03c-0.12-0.66-0.13-1.34-0.02-2.02
					c0.2-1.29,0.81-2.45,1.75-3.35c0.35-0.34,0.36-0.9,0.02-1.25c-0.34-0.35-0.9-0.36-1.25-0.02c-1.21,1.18-1.99,2.67-2.26,4.34
					c-0.14,0.87-0.13,1.75,0.03,2.62C16.48,31.94,16.85,32.24,17.27,32.24z"/>
			</g>
		</g>
		<g>
			<g>
				<path class="st1" d="M21.77,24.52c0.1,0,0.19-0.02,0.29-0.05c0.93-0.32,1.94-0.41,2.91-0.26c0.15,0.03,0.28,0.06,0.42,0.08
					c0.47,0.11,0.95-0.18,1.06-0.66s-0.18-0.95-0.66-1.06c-0.18-0.05-0.37-0.08-0.55-0.11c-1.27-0.2-2.56-0.08-3.77,0.33
					c-0.46,0.16-0.71,0.66-0.54,1.12C21.06,24.29,21.41,24.52,21.77,24.52z"/>
			</g>
		</g>
		<g>
			<g>
				<g>
					<path class="st1" d="M23.26,26.3l-0.1-1.08c-0.02-0.17,0.1-0.3,0.27-0.32l0.83-0.07c0.17-0.02,0.3,0.1,0.32,0.27l0.1,1.09
						c0.01,0.15,0.13,0.26,0.28,0.27c0.84,0.07,1.66,0.34,2.33,0.74c0.12,0.07,0.17,0.23,0.12,0.36L27,28.57
						c-0.06,0.17-0.27,0.24-0.42,0.15c-0.8-0.48-1.83-0.75-2.52-0.69c-0.58,0.06-0.92,0.3-0.88,0.69c0.12,1.27,3.97,0.14,4.22,2.77
						c0.1,1.11-0.58,1.97-1.77,2.36c-0.14,0.05-0.22,0.17-0.21,0.31l0.09,1.03c0.02,0.17-0.1,0.3-0.27,0.32l-0.83,0.07
						c-0.17,0.02-0.3-0.1-0.32-0.27l-0.09-1c-0.01-0.15-0.14-0.26-0.28-0.27c-0.69-0.05-1.35-0.21-1.9-0.46
						c-0.14-0.06-0.2-0.23-0.15-0.37l0.39-1.07c0.06-0.16,0.23-0.24,0.39-0.17c0.77,0.31,1.65,0.51,2.2,0.46
						c0.47-0.05,0.76-0.24,0.73-0.58c-0.11-1.23-3.98-0.17-4.23-2.85c-0.11-1.23,0.7-2.06,1.89-2.41
						C23.17,26.58,23.27,26.45,23.26,26.3z"/>
				</g>
			</g>
		</g>
	</g>
	<g>
		<g>
			<path class="st2" d="M41.34,19.8c-1.97-1.73-4.43-2.96-7.16-3.44c-0.85-0.15-1.81-0.25-1.81-0.25c-3.68-0.4-5.04,1.42-5.04,1.42
				c-0.14,0.19-0.66,0.92-0.56,1.88c0.02,0.21,0.13,0.97,0.73,1.49c0.61,0.51,1.39,0.5,1.8,0.5c2.42-0.03,4.58,0.26,5.24,0.37
				c2.07,0.37,3.47,1.59,3.94,2c2.16,1.89,3.16,4.92,3.02,7.65c-0.28,5.76-5.35,10.01-10.99,9.4c-1.18-0.13-2.3-0.47-3.31-0.96
				c-1.25-0.62-2.76-0.04-3.32,1.25c-0.51,1.18,0,2.57,1.16,3.14c1.23,0.62,2.56,1.06,3.98,1.3c8.84,1.54,18.71-3.12,19.12-12.08
				c0.1-2.15-0.7-6.53-2.76-7.99L41.34,19.8z"/>
		</g>
	</g>
	<g>
		<g>
			<path class="st1" d="M32.39,46.73c4.37,0,8.67-1.37,11.77-3.86c3.01-2.42,4.69-5.65,4.86-9.35c0.09-1.98-0.57-6.94-3.13-8.75
				c-0.39-0.28-0.95-0.18-1.23,0.21c-0.28,0.39-0.18,0.95,0.21,1.23c1.63,1.16,2.5,4.99,2.39,7.23c-0.15,3.18-1.6,5.97-4.21,8.06
				c-3.55,2.85-8.87,4.07-13.88,3.2c-1.3-0.23-2.55-0.64-3.73-1.23c-0.73-0.37-1.06-1.25-0.73-2.01c0.17-0.4,0.5-0.71,0.9-0.86
				c0.39-0.15,0.83-0.13,1.2,0.06c1.13,0.56,2.34,0.91,3.61,1.05c2.95,0.32,5.93-0.6,8.19-2.52c2.29-1.96,3.63-4.69,3.78-7.71
				c0.16-3.22-1.12-6.42-3.32-8.36c-0.51-0.45-2.06-1.8-4.36-2.2c-0.83-0.15-3.01-0.41-5.41-0.39c-0.36,0.01-0.87,0.01-1.22-0.28
				c-0.34-0.28-0.41-0.76-0.43-0.9c-0.06-0.53,0.18-0.98,0.39-1.27c0.04-0.05,1.17-1.41,4.23-1.07c0.02,0,0.96,0.1,1.75,0.24
				c2.5,0.44,4.82,1.55,6.74,3.22c0.37,0.32,0.93,0.28,1.25-0.08c0.32-0.37,0.28-0.93-0.08-1.25c-2.16-1.89-4.79-3.15-7.6-3.64
				c-0.86-0.15-1.84-0.25-1.87-0.26c-4.13-0.46-5.78,1.69-5.84,1.78c-0.56,0.76-0.83,1.65-0.73,2.51c0.05,0.39,0.23,1.37,1.05,2.07
				c0.85,0.73,1.87,0.71,2.37,0.7c2.37-0.03,4.47,0.25,5.1,0.36c1.83,0.32,3.1,1.43,3.51,1.8c1.81,1.59,2.86,4.24,2.73,6.94
				c-0.12,2.53-1.25,4.81-3.16,6.45c-1.92,1.63-4.35,2.39-6.85,2.11c-1.06-0.12-2.08-0.41-3.01-0.88c-0.82-0.4-1.75-0.45-2.6-0.13
				c-0.86,0.32-1.55,0.98-1.91,1.83c-0.69,1.62,0.01,3.5,1.57,4.28c1.33,0.66,2.75,1.13,4.22,1.39
				C30.03,46.63,31.21,46.73,32.39,46.73z"/>
		</g>
	</g>
	<g>
		<g>
			<path class="st2" d="M35.47,45c-0.05,1.03-0.59,5.34-0.59,5.34l8.57,1.07l4.59-16.95c0,0-3.75,1.17-4.94,2.48
				C41.91,38.26,35.47,45,35.47,45z"/>
		</g>
	</g>
	<g>
		<g>
			<path class="st1" d="M44.11,52.38l4.79-17.69c0.13-0.47-0.15-0.96-0.62-1.08c-0.48-0.13-0.96,0.15-1.08,0.62l-4.39,16.2
				l-6.93-0.87c0.17-1.32,0.45-3.77,0.49-4.54c0.02-0.49-0.36-0.9-0.85-0.92c-0.51-0.01-0.9,0.36-0.92,0.85
				c-0.04,0.79-0.39,3.78-0.58,5.26l-0.11,0.87L44.11,52.38z"/>
		</g>
	</g>
	<g>
		<g>
			
				<rect x="35.37" y="46.46" transform="matrix(0.1092 -0.994 0.994 0.1092 -19.3855 86.2764)" class="st1" width="6.15" height="14.98"/>
		</g>
		<g>
			<path class="st1" d="M29.69,56.98l0.86-7.87l16.65,1.83l-0.86,7.87L29.69,56.98z M32.11,51.05l-0.48,4.36l13.14,1.44l0.48-4.36
				L32.11,51.05z"/>
		</g>
	</g>
	<g>
		<g>
			<path class="st2" d="M43.28,54.49c-0.06,0.48-0.48,0.82-0.96,0.76c-0.48-0.06-0.82-0.48-0.76-0.96c0.06-0.48,0.48-0.82,0.96-0.76
				C42.99,53.59,43.33,54.01,43.28,54.49z"/>
		</g>
		<g>
			<path class="st2" d="M42.22,56.12c-0.46-0.06-0.88-0.28-1.17-0.64c-0.29-0.37-0.42-0.82-0.38-1.29c0.06-0.46,0.28-0.88,0.64-1.17
				c0.37-0.29,0.82-0.42,1.29-0.38c0.96,0.1,1.64,0.96,1.54,1.93l0,0c-0.1,0.89-0.85,1.55-1.74,1.55
				C42.35,56.13,42.3,56.13,42.22,56.12z M42.4,54.39l0.88,0.1l-0.85-0.12l0,0C42.41,54.37,42.4,54.38,42.4,54.39z"/>
		</g>
	</g>
	<g>
		<g>
			<path class="st1" d="M22.09,18.18c0.49,0,0.88-0.39,0.88-0.88v-4.91c0-0.49-0.39-0.88-0.88-0.88c-0.49,0-0.88,0.39-0.88,0.88
				v4.91C21.21,17.79,21.6,18.18,22.09,18.18z"/>
		</g>
	</g>
	<g>
		<g>
			<path class="st1" d="M15.84,20.83c0.15,0,0.3-0.04,0.44-0.12c0.42-0.25,0.57-0.78,0.32-1.2l-2.46-4.24
				c-0.25-0.42-0.78-0.56-1.2-0.32c-0.42,0.25-0.57,0.78-0.32,1.2l2.46,4.24C15.25,20.67,15.54,20.83,15.84,20.83z"/>
		</g>
	</g>
	<g>
		<g>
			<path class="st1" d="M11.56,26.63c0.32,0,0.63-0.17,0.79-0.49c0.22-0.43,0.05-0.96-0.39-1.18l-4.38-2.22
				c-0.43-0.22-0.96-0.05-1.18,0.39c-0.22,0.43-0.05,0.96,0.39,1.18l4.38,2.22C11.29,26.6,11.43,26.63,11.56,26.63z"/>
		</g>
	</g>
</g>
</svg>
